<?xml version="1.0" encoding="UTF-8"?>
<!DOCTYPE svg PUBLIC "-//W3C//DTD SVG 1.1//EN" "http://www.w3.org/Graphics/SVG/1.1/DTD/svg11.dtd">
<!-- Creator: CorelDRAW 2021 (64-Bit) -->
<svg xmlns="http://www.w3.org/2000/svg" xml:space="preserve" width="1.125in" height="1.125in" version="1.1" style="shape-rendering:geometricPrecision; text-rendering:geometricPrecision; image-rendering:optimizeQuality; fill-rule:evenodd; clip-rule:evenodd"
viewBox="0 0 2070.65 2070.65"
 xmlns:xlink="http://www.w3.org/1999/xlink"
 xmlns:xodm="http://www.corel.com/coreldraw/odm/2003">
 <defs>
  <style type="text/css">
   <![CDATA[
    .fil0 {fill:none}
   ]]>
  </style>
   <clipPath id="id0">
    <path d="M1035.33 0c571.8,0 1035.33,463.53 1035.33,1035.33 0,571.8 -463.53,1035.33 -1035.33,1035.33 -571.8,0 -1035.33,-463.53 -1035.33,-1035.33 0,-571.8 463.53,-1035.33 1035.33,-1035.33z"/>
   </clipPath>
    <clipPath id="id1">
     <path d="M1035.33 0c571.8,0 1035.33,463.53 1035.33,1035.33 0,571.8 -463.53,1035.33 -1035.33,1035.33 -571.8,0 -1035.33,-463.53 -1035.33,-1035.33 0,-571.8 463.53,-1035.33 1035.33,-1035.33z"/>
    </clipPath>
    <clipPath id="id2">
     <path d="M1035.33 0c571.8,0 1035.33,463.53 1035.33,1035.33 0,571.8 -463.53,1035.33 -1035.33,1035.33 -571.8,0 -1035.33,-463.53 -1035.33,-1035.33 0,-571.8 463.53,-1035.33 1035.33,-1035.33z"/>
    </clipPath>
 </defs>
 <g id="Layer_x0020_1">
  <metadata id="CorelCorpID_0Corel-Layer"/>
  <g>
  </g>
  <g style="clip-path:url(#id0)">
   <g>
   </g>
   <g style="clip-path:url(#id1)">
    <image x="-5.54" y="-20.03" width="2110.71" height="2110.71" xlink:href="avatar-ozan_Images\avatar-ozan_ImgID1.png"/>
   </g>
   <g style="clip-path:url(#id2)">
   </g>
  </g>
  <path class="fil0" d="M1035.33 0c571.8,0 1035.33,463.53 1035.33,1035.33 0,571.8 -463.53,1035.33 -1035.33,1035.33 -571.8,0 -1035.33,-463.53 -1035.33,-1035.33 0,-571.8 463.53,-1035.33 1035.33,-1035.33z"/>
 </g>
</svg>
